<mxfile host="app.diagrams.net" modified="2021-04-24T03:24:09.573Z" agent="5.0 (Windows NT 10.0; Win64; x64) AppleWebKit/537.36 (KHTML, like Gecko) Chrome/90.0.4430.85 Safari/537.36" etag="3G64sarMN73maGIRp2KF" version="14.6.5" type="github">
  <diagram id="lAI1c9M8lJS5LuJ-5hLS" name="第 1 页">
    <mxGraphModel dx="1466" dy="738" grid="1" gridSize="10" guides="1" tooltips="1" connect="1" arrows="1" fold="1" page="1" pageScale="1" pageWidth="827" pageHeight="1169" math="0" shadow="0">
      <root>
        <mxCell id="0" />
        <mxCell id="1" parent="0" />
        <mxCell id="WbUTNX-6H6V031TOq8o_-1" value="" style="rounded=0;whiteSpace=wrap;html=1;fillColor=#f5f5f5;strokeColor=#666666;fontColor=#333333;" vertex="1" parent="1">
          <mxGeometry x="300" y="90" width="390" height="160" as="geometry" />
        </mxCell>
        <mxCell id="WbUTNX-6H6V031TOq8o_-2" value="移动端（微信小程序）" style="text;html=1;strokeColor=none;fillColor=none;align=center;verticalAlign=middle;whiteSpace=wrap;rounded=0;" vertex="1" parent="1">
          <mxGeometry x="417.5" y="100" width="155" height="20" as="geometry" />
        </mxCell>
        <mxCell id="WbUTNX-6H6V031TOq8o_-5" value="服务网关" style="rounded=0;whiteSpace=wrap;html=1;fillColor=#d5e8d4;strokeColor=#82b366;" vertex="1" parent="1">
          <mxGeometry x="300" y="270" width="390" height="30" as="geometry" />
        </mxCell>
        <mxCell id="WbUTNX-6H6V031TOq8o_-33" style="edgeStyle=orthogonalEdgeStyle;rounded=0;orthogonalLoop=1;jettySize=auto;html=1;exitX=0.5;exitY=1;exitDx=0;exitDy=0;entryX=0.5;entryY=0;entryDx=0;entryDy=0;startArrow=none;startFill=0;endArrow=classic;endFill=1;" edge="1" parent="1" source="WbUTNX-6H6V031TOq8o_-6" target="WbUTNX-6H6V031TOq8o_-11">
          <mxGeometry relative="1" as="geometry" />
        </mxCell>
        <mxCell id="WbUTNX-6H6V031TOq8o_-6" value="" style="rounded=0;whiteSpace=wrap;html=1;fillColor=#f8cecc;strokeColor=#b85450;" vertex="1" parent="1">
          <mxGeometry x="300" y="330" width="250" height="60" as="geometry" />
        </mxCell>
        <mxCell id="WbUTNX-6H6V031TOq8o_-32" style="edgeStyle=orthogonalEdgeStyle;rounded=0;orthogonalLoop=1;jettySize=auto;html=1;exitX=0.5;exitY=1;exitDx=0;exitDy=0;entryX=0.5;entryY=0;entryDx=0;entryDy=0;startArrow=none;startFill=0;endArrow=classic;endFill=1;" edge="1" parent="1" source="WbUTNX-6H6V031TOq8o_-7" target="WbUTNX-6H6V031TOq8o_-12">
          <mxGeometry relative="1" as="geometry" />
        </mxCell>
        <mxCell id="WbUTNX-6H6V031TOq8o_-7" value="" style="rounded=0;whiteSpace=wrap;html=1;fillColor=#f8cecc;strokeColor=#b85450;" vertex="1" parent="1">
          <mxGeometry x="570" y="330" width="120" height="60" as="geometry" />
        </mxCell>
        <mxCell id="WbUTNX-6H6V031TOq8o_-9" value="" style="rounded=0;whiteSpace=wrap;html=1;fillColor=#fad7ac;strokeColor=#b46504;" vertex="1" parent="1">
          <mxGeometry x="570" y="420" width="120" height="60" as="geometry" />
        </mxCell>
        <mxCell id="WbUTNX-6H6V031TOq8o_-10" value="" style="rounded=0;whiteSpace=wrap;html=1;fillColor=#fad7ac;strokeColor=#b46504;" vertex="1" parent="1">
          <mxGeometry x="300" y="420" width="250" height="60" as="geometry" />
        </mxCell>
        <mxCell id="WbUTNX-6H6V031TOq8o_-11" value="盆栽数据" style="text;html=1;strokeColor=none;fillColor=none;align=center;verticalAlign=middle;whiteSpace=wrap;rounded=0;" vertex="1" parent="1">
          <mxGeometry x="390" y="420" width="74" height="20" as="geometry" />
        </mxCell>
        <mxCell id="WbUTNX-6H6V031TOq8o_-12" value="传感器数据" style="text;html=1;strokeColor=none;fillColor=none;align=center;verticalAlign=middle;whiteSpace=wrap;rounded=0;" vertex="1" parent="1">
          <mxGeometry x="593" y="420" width="74" height="20" as="geometry" />
        </mxCell>
        <mxCell id="WbUTNX-6H6V031TOq8o_-13" value="" style="strokeWidth=2;html=1;shape=mxgraph.flowchart.database;whiteSpace=wrap;fillColor=#e1d5e7;strokeColor=#9673a6;" vertex="1" parent="1">
          <mxGeometry x="330" y="440" width="60" height="30" as="geometry" />
        </mxCell>
        <mxCell id="WbUTNX-6H6V031TOq8o_-15" value="" style="strokeWidth=2;html=1;shape=mxgraph.flowchart.database;whiteSpace=wrap;fillColor=#e1d5e7;strokeColor=#9673a6;" vertex="1" parent="1">
          <mxGeometry x="450" y="440" width="60" height="30" as="geometry" />
        </mxCell>
        <mxCell id="WbUTNX-6H6V031TOq8o_-16" value="" style="strokeWidth=2;html=1;shape=mxgraph.flowchart.database;whiteSpace=wrap;fillColor=#e1d5e7;strokeColor=#9673a6;" vertex="1" parent="1">
          <mxGeometry x="600" y="440" width="60" height="30" as="geometry" />
        </mxCell>
        <mxCell id="WbUTNX-6H6V031TOq8o_-25" style="edgeStyle=orthogonalEdgeStyle;rounded=0;orthogonalLoop=1;jettySize=auto;html=1;exitX=0.5;exitY=1;exitDx=0;exitDy=0;entryX=0.833;entryY=0;entryDx=0;entryDy=0;entryPerimeter=0;" edge="1" parent="1" source="WbUTNX-6H6V031TOq8o_-17" target="WbUTNX-6H6V031TOq8o_-5">
          <mxGeometry relative="1" as="geometry" />
        </mxCell>
        <mxCell id="WbUTNX-6H6V031TOq8o_-17" value="传感器模块" style="rounded=0;whiteSpace=wrap;html=1;fillColor=#b0e3e6;strokeColor=#0e8088;" vertex="1" parent="1">
          <mxGeometry x="570" y="130" width="110" height="100" as="geometry" />
        </mxCell>
        <mxCell id="WbUTNX-6H6V031TOq8o_-21" style="edgeStyle=orthogonalEdgeStyle;rounded=0;orthogonalLoop=1;jettySize=auto;html=1;exitX=0.5;exitY=1;exitDx=0;exitDy=0;entryX=0.346;entryY=0;entryDx=0;entryDy=0;entryPerimeter=0;" edge="1" parent="1" source="WbUTNX-6H6V031TOq8o_-20" target="WbUTNX-6H6V031TOq8o_-5">
          <mxGeometry relative="1" as="geometry" />
        </mxCell>
        <mxCell id="WbUTNX-6H6V031TOq8o_-20" value="盆栽基本数据管理" style="rounded=0;whiteSpace=wrap;html=1;fillColor=#b0e3e6;strokeColor=#0e8088;" vertex="1" parent="1">
          <mxGeometry x="320" y="130" width="230" height="100" as="geometry" />
        </mxCell>
        <mxCell id="WbUTNX-6H6V031TOq8o_-22" value="盆栽基本数据服务" style="text;html=1;strokeColor=none;fillColor=none;align=center;verticalAlign=middle;whiteSpace=wrap;rounded=0;" vertex="1" parent="1">
          <mxGeometry x="380" y="350" width="110" height="20" as="geometry" />
        </mxCell>
        <mxCell id="WbUTNX-6H6V031TOq8o_-23" value="传感器数据传输服务" style="text;html=1;strokeColor=none;fillColor=none;align=center;verticalAlign=middle;whiteSpace=wrap;rounded=0;" vertex="1" parent="1">
          <mxGeometry x="580" y="350" width="90" height="20" as="geometry" />
        </mxCell>
        <mxCell id="WbUTNX-6H6V031TOq8o_-29" value="" style="endArrow=classic;html=1;entryX=0.5;entryY=0;entryDx=0;entryDy=0;" edge="1" parent="1" target="WbUTNX-6H6V031TOq8o_-7">
          <mxGeometry width="50" height="50" relative="1" as="geometry">
            <mxPoint x="630" y="301" as="sourcePoint" />
            <mxPoint x="800" y="260" as="targetPoint" />
          </mxGeometry>
        </mxCell>
        <mxCell id="WbUTNX-6H6V031TOq8o_-30" value="" style="endArrow=classic;html=1;exitX=0.337;exitY=0.967;exitDx=0;exitDy=0;exitPerimeter=0;entryX=0.525;entryY=0.028;entryDx=0;entryDy=0;entryPerimeter=0;" edge="1" parent="1" source="WbUTNX-6H6V031TOq8o_-5" target="WbUTNX-6H6V031TOq8o_-6">
          <mxGeometry width="50" height="50" relative="1" as="geometry">
            <mxPoint x="470" y="360" as="sourcePoint" />
            <mxPoint x="435" y="330" as="targetPoint" />
          </mxGeometry>
        </mxCell>
        <mxCell id="WbUTNX-6H6V031TOq8o_-34" value="&lt;font size=&quot;1&quot;&gt;&lt;b style=&quot;font-size: 14px&quot;&gt;UI层&lt;/b&gt;&lt;/font&gt;" style="text;html=1;strokeColor=none;fillColor=none;align=center;verticalAlign=middle;whiteSpace=wrap;rounded=0;" vertex="1" parent="1">
          <mxGeometry x="230" y="160" width="40" height="20" as="geometry" />
        </mxCell>
        <mxCell id="WbUTNX-6H6V031TOq8o_-35" value="&lt;font size=&quot;1&quot;&gt;&lt;b style=&quot;font-size: 14px&quot;&gt;服务层&lt;/b&gt;&lt;/font&gt;" style="text;html=1;strokeColor=none;fillColor=none;align=center;verticalAlign=middle;whiteSpace=wrap;rounded=0;" vertex="1" parent="1">
          <mxGeometry x="230" y="340" width="50" height="20" as="geometry" />
        </mxCell>
        <mxCell id="WbUTNX-6H6V031TOq8o_-36" value="&lt;font size=&quot;1&quot;&gt;&lt;b style=&quot;font-size: 14px&quot;&gt;数据层&lt;/b&gt;&lt;/font&gt;" style="text;html=1;strokeColor=none;fillColor=none;align=center;verticalAlign=middle;whiteSpace=wrap;rounded=0;" vertex="1" parent="1">
          <mxGeometry x="230" y="445" width="50" height="20" as="geometry" />
        </mxCell>
      </root>
    </mxGraphModel>
  </diagram>
</mxfile>
